<?xml version="1.0" standalone="no"?>
<!DOCTYPE svg PUBLIC "-//W3C//DTD SVG 20010904//EN" "http://www.w3.org/TR/2001/REC-SVG-20010904/DTD/svg10.dtd">
<!-- Created using Krita: https://krita.org -->
<svg xmlns="http://www.w3.org/2000/svg" 
    xmlns:xlink="http://www.w3.org/1999/xlink"
    xmlns:krita="http://krita.org/namespaces/svg/krita"
    xmlns:sodipodi="http://sodipodi.sourceforge.net/DTD/sodipodi-0.dtd"
    width="240pt"
    height="240pt"
    viewBox="0 0 240 240">
<defs/>
<g id="group0" transform="matrix(1.12818323733934 0 0 1.07829463935404 4.80000000000001 4.80000024331424)" fill="none">
  <rect id="shape0" transform="matrix(1.13609014571189 -0.6073296004082 1.19319452263432 0.496063539320016 56.7306180165141 83.1363108077254)" fill="none" stroke="#a57f42" stroke-width="1.2" stroke-linecap="square" stroke-linejoin="bevel" width="38.4" height="38.4"/>
  <rect id="shape1" transform="matrix(1.13609014571189 -0.6073296004082 1.19319452263432 0.496063539320016 56.7306180165141 83.1363108077254)" fill="#9e9e9e" fill-rule="evenodd" stroke="#9e9e9e" stroke-width="2.4" stroke-linecap="square" stroke-linejoin="bevel" width="38.4" height="38.4"/>
  <path id="shape01" transform="matrix(0.999999949478318 0 0 -0.999999949478318 102.29287878892 194.470720310896)" fill="none" stroke="#9e9e9e" stroke-width="2.4" stroke-linecap="square" stroke-linejoin="miter" stroke-miterlimit="2" d="M0 0L0 19.2" sodipodi:nodetypes="cc"/>
  <ellipse id="shape11" transform="matrix(0.999999949478318 0 0 -0.999999949478318 93.6528792254271 213.67071934088)" rx="8.64" ry="7.68" cx="8.64" cy="7.68" fill="#9e9e9e" fill-rule="evenodd" stroke="#9e9e9e" stroke-width="2.4" stroke-linecap="square" stroke-linejoin="bevel"/>
  <path id="shape01" transform="matrix(-2.22044604925031e-16 0.999999949478318 0.999999949478318 -1.11022302462516e-16 19.1999990299837 110.399993870784)" fill="none" stroke="#9e9e9e" stroke-width="2.4" stroke-linecap="square" stroke-linejoin="miter" stroke-miterlimit="2" d="M0 0L0 19.2" sodipodi:nodetypes="cc"/>
  <ellipse id="shape11" transform="matrix(-2.22044604925031e-16 0.999999949478318 0.999999949478318 -1.11022302462516e-16 -7.105427357601e-15 101.759994307291)" rx="8.64" ry="7.68" cx="8.64" cy="7.68" fill="#9e9e9e" fill-rule="evenodd" stroke="#9e9e9e" stroke-width="2.4" stroke-linecap="square" stroke-linejoin="bevel"/>
  <path id="shape02" transform="matrix(-1.11022302462516e-16 0.999999949478318 -0.999999949478318 2.22044604925031e-16 185.032784829495 110.399993870784)" fill="none" stroke="#9e9e9e" stroke-width="2.4" stroke-linecap="square" stroke-linejoin="miter" stroke-miterlimit="2" d="M0 0L0 19.2" sodipodi:nodetypes="cc"/>
  <ellipse id="shape12" transform="matrix(-1.11022302462516e-16 0.999999949478318 -0.999999949478318 2.22044604925031e-16 204.232783859478 101.759994307291)" rx="8.64" ry="7.68" cx="8.64" cy="7.68" fill="#9e9e9e" fill-rule="evenodd" stroke="#9e9e9e" stroke-width="2.4" stroke-linecap="square" stroke-linejoin="bevel"/>
  <path id="shape03" transform="matrix(0.999999949478318 0 0 0.999999949478318 102.29287878892 19.1999990299837)" fill="none" stroke="#9e9e9e" stroke-width="2.4" stroke-linecap="square" stroke-linejoin="miter" stroke-miterlimit="2" d="M0 0L0 19.2" sodipodi:nodetypes="cc"/>
  <ellipse id="shape13" transform="matrix(0.999999949478318 0 0 0.999999949478318 93.6528792254272 -3.5527136788005e-15)" rx="8.64" ry="7.68" cx="8.64" cy="7.68" fill="#9e9e9e" fill-rule="evenodd" stroke="#9e9e9e" stroke-width="2.4" stroke-linecap="square" stroke-linejoin="bevel"/>
  <rect id="shape04" transform="matrix(-0.815797949441498 0.471636542780056 -0.00699739399711752 1.05389998283673 149.489271718798 84.7444900430667)" fill="#9e9e9e" fill-rule="evenodd" stroke="#9e9e9e" stroke-width="2.4" stroke-linecap="square" stroke-linejoin="bevel" width="50.88" height="48"/>
  <rect id="shape05" transform="matrix(0.815797983881445 0.378020640466364 0.00699739429252091 1.05309704971291 54.8564998925467 89.3047225946206)" fill="#9e9e9e" fill-rule="evenodd" stroke="#9e9e9e" stroke-width="2.4" stroke-linecap="square" stroke-linejoin="bevel" width="50.88" height="48"/>
 </g>
</svg>
