<?xml version="1.0" standalone="no"?>
<!DOCTYPE svg PUBLIC "-//W3C//DTD SVG 20010904//EN" "http://www.w3.org/TR/2001/REC-SVG-20010904/DTD/svg10.dtd">
<!-- Created using Krita: https://krita.org -->
<svg xmlns="http://www.w3.org/2000/svg" 
    xmlns:xlink="http://www.w3.org/1999/xlink"
    xmlns:krita="http://krita.org/namespaces/svg/krita"
    xmlns:sodipodi="http://sodipodi.sourceforge.net/DTD/sodipodi-0.dtd"
    width="240pt"
    height="240pt"
    viewBox="0 0 240 240">
<defs/>
<g id="group0" transform="translate(23.9359762506487, 19.1999995507201)" fill="none">
  <path id="shape0" transform="matrix(0.999999984645748 0 0 0.999999984645748 0.0640240207210354 38.399999564875)" fill="none" stroke="#9e9e9e" stroke-width="1.68" stroke-linecap="square" stroke-linejoin="miter" stroke-miterlimit="2" d="M0 0L0 121.56" sodipodi:nodetypes="cc"/>
  <path id="shape01" transform="matrix(1.00000000497677 0 0 1.00000000497677 0.0640238687939139 160.080001923799)" fill="none" stroke="#9e9e9e" stroke-width="1.68" stroke-linecap="square" stroke-linejoin="miter" stroke-miterlimit="2" d="M0 0L144 0" sodipodi:nodetypes="cc"/>
  <path id="shape02" transform="matrix(0.999999976600004 0 0 0.999999976600004 0.06402421984059 3.5527136788005e-15)" fill="none" stroke="#9e9e9e" stroke-width="1.68" stroke-linecap="square" stroke-linejoin="miter" stroke-miterlimit="2" d="M0 38.4L24 0" sodipodi:nodetypes="cc"/>
  <path id="shape03" transform="matrix(1.18330289634831 0 0 0.999999992970267 0 98.3606133838082)" fill="none" stroke="#9e9e9e" stroke-width="1.68" stroke-linecap="square" stroke-linejoin="miter" stroke-miterlimit="2" d="M0 0.296985L121.451 0" sodipodi:nodetypes="cc"/>
  <g id="group1" transform="translate(0.33176936606754, 4.49279919934042e-07)" fill="none">
   <path id="shape0" transform="translate(23.7322543832838, 0)" fill="none" stroke="#9e9e9e" stroke-width="1.68" stroke-linecap="square" stroke-linejoin="miter" stroke-miterlimit="2" d="M0 0L144 0" sodipodi:nodetypes="cc"/>
   <path id="shape04" transform="matrix(1.00818892525341 -0.742624977167514 -0.0110052998391825 0.998031489334283 145.673480340309 39.3660102587376)" fill="none" stroke="#9e9e9e" stroke-width="1.68" stroke-linecap="square" stroke-linejoin="miter" stroke-miterlimit="2" d="M0 0L0 120" sodipodi:nodetypes="cc"/>
   <path id="shape05" transform="matrix(0.999999970204953 0 0 0.999999970204953 168.692248634032 0.240000759699214)" fill="none" stroke="#9e9e9e" stroke-width="1.68" stroke-linecap="square" stroke-linejoin="miter" stroke-miterlimit="2" d="M0 0L0 120" sodipodi:nodetypes="cc"/>
   <path id="shape06" transform="matrix(0.999999966063301 0 0 0.999999966063301 0.692253536223738 38.399998368175)" fill="none" stroke="#9e9e9e" stroke-width="1.68" stroke-linecap="square" stroke-linejoin="miter" stroke-miterlimit="2" d="M0 0L144 0" sodipodi:nodetypes="cc"/>
   <path id="shape07" transform="matrix(0.999999988913243 0 0 0.999999988913243 24.2122574967521 120.239998454063)" fill="none" stroke="#9e9e9e" stroke-width="1.68" stroke-linecap="square" stroke-linejoin="miter" stroke-miterlimit="2" d="M0 0L144 0" sodipodi:nodetypes="cc"/>
   <path id="shape08" transform="matrix(0.999999964128983 0 0 0.999999964128983 145.41224829669 0.240000757299018)" fill="none" stroke="#9e9e9e" stroke-width="1.68" stroke-linecap="square" stroke-linejoin="miter" stroke-miterlimit="2" d="M0 38.4L24 0" sodipodi:nodetypes="cc"/>
   <path id="shape09" transform="matrix(0.999999987959925 0 0 0.999999987959925 144.212256099235 121.199998309573)" fill="none" stroke="#9e9e9e" stroke-width="1.68" stroke-linecap="square" stroke-linejoin="miter" stroke-miterlimit="2" d="M0 38.4L24 0" sodipodi:nodetypes="cc"/>
   <path id="shape010" transform="matrix(0.936363610954292 0 0 1.00349328999337 0.855890198327749 121.204188311212)" fill="none" stroke="#9e9e9e" stroke-width="1.68" stroke-linecap="square" stroke-linejoin="miter" stroke-miterlimit="2" d="M0 38.4L24 0" sodipodi:nodetypes="cc"/>
   <path id="shape011" transform="matrix(0.973119920958708 0 0 0.908132042000157 -3.5527136788005e-15 63.4897574175685)" fill="none" stroke="#9e9e9e" stroke-width="1.68" stroke-linecap="square" stroke-linejoin="miter" stroke-miterlimit="2" d="M0 38.4L24 0" sodipodi:nodetypes="cc"/>
   <path id="shape012" transform="matrix(0.999999987617589 0 0 0.999999987617589 23.4922560220706 63.5606127411398)" fill="none" stroke="#9e9e9e" stroke-width="1.68" stroke-linecap="square" stroke-linejoin="miter" stroke-miterlimit="2" d="M0 0.296985L121.451 0" sodipodi:nodetypes="cc"/>
   <path id="shape013" transform="matrix(1.00000001652917 0 0 1.00000001652917 23.7322551766841 1.08950873567437e-06)" fill="none" stroke="#9e9e9e" stroke-width="1.68" stroke-linecap="square" stroke-linejoin="miter" stroke-miterlimit="2" d="M0 0L0 120" sodipodi:nodetypes="cc"/>
   <path id="shape014" transform="matrix(0.999999973053742 0 0 0.999999973053742 23.7322530898634 66.0346507433602)" fill="none" stroke="#ffffff" stroke-width="1.68" stroke-linecap="square" stroke-linejoin="miter" stroke-miterlimit="2" d="M0 0L0 30.9288" sodipodi:nodetypes="cc"/>
   <path id="shape1" transform="matrix(0.999999973053742 0 0 0.999999973053742 24.3317029213515 65.9498010658087)" fill="none" stroke="#ffffff" stroke-width="1.68" stroke-linecap="square" stroke-linejoin="miter" stroke-miterlimit="2" d="M0 0L0.296985 10.3945" sodipodi:nodetypes="cc"/>
   <path id="shape2" transform="matrix(0.999999973053742 0 0 0.999999973053742 23.1922539235321 67.2000010808191)" fill="none" stroke="#ffffff" stroke-width="1.68" stroke-linecap="square" stroke-linejoin="miter" stroke-miterlimit="2" d="M0 0L0.09 15.39" sodipodi:nodetypes="cc"/>
   <path id="shape3" transform="matrix(0.999999973053742 0 0 0.999999973053742 24.6922555848309 76.800000822135)" fill="none" stroke="#ffffff" stroke-width="1.68" stroke-linecap="square" stroke-linejoin="miter" stroke-miterlimit="2" d="M0 0L0.06 19.2" sodipodi:nodetypes="cc"/>
   <path id="shape4" transform="matrix(0.999999973053742 0 0 0.999999973053742 22.6222531864751 82.8600008040217)" fill="none" stroke="#ffffff" stroke-width="1.68" stroke-linecap="square" stroke-linejoin="miter" stroke-miterlimit="2" d="M0 0L0.42 13.5" sodipodi:nodetypes="cc"/>
   <path id="shape5" transform="matrix(0.999999973053742 0 0 0.999999973053742 24.3022531435953 96.0000003047669)" fill="none" stroke="#ffffff" stroke-width="1.68" stroke-linecap="square" stroke-linejoin="miter" stroke-miterlimit="2" d="M0.09 0L0 0.78" sodipodi:nodetypes="cc"/>
   <path id="shape6" transform="matrix(0.999999973053742 0 0 0.999999973053742 22.8022531818809 96.0000003047669)" fill="none" stroke="#ffffff" stroke-width="1.68" stroke-linecap="square" stroke-linejoin="miter" stroke-miterlimit="2" d="M0.03 0L0 0.81" sodipodi:nodetypes="cc"/>
   <path id="shape7" transform="matrix(0.999999973053742 0 0 0.999999973053742 146.552259768035 119.999999658057)" fill="none" stroke="#ffffff" stroke-width="1.68" stroke-linecap="square" stroke-linejoin="miter" stroke-miterlimit="2" d="M0 0L20.28 0" sodipodi:nodetypes="cc"/>
   <path id="shape8" transform="matrix(0.999999973053742 0 0 0.999999973053742 147.198567726332 120.828351098876)" fill="none" stroke="#ffffff" stroke-width="1.68" stroke-linecap="square" stroke-linejoin="miter" stroke-miterlimit="2" d="M0 0.190919L8.25194 0" sodipodi:nodetypes="cc"/>
   <path id="shape9" transform="matrix(0.999999973053742 0 0 0.999999973053742 156.617229500959 121.104122727412)" fill="none" stroke="#ffffff" stroke-width="1.68" stroke-linecap="square" stroke-linejoin="miter" stroke-miterlimit="2" d="M0 0L4.179 0" sodipodi:nodetypes="cc"/>
   <path id="shape10" transform="matrix(0.999999973053742 0 0 0.999999973053742 161.347773590468 120.870777503265)" fill="none" stroke="#ffffff" stroke-width="1.68" stroke-linecap="square" stroke-linejoin="miter" stroke-miterlimit="2" d="M0 0.106066L3.45775 0" sodipodi:nodetypes="cc"/>
   <path id="shape11" transform="matrix(0.999999973053742 0 0 0.999999973053742 164.996444368027 119.999999658057)" fill="none" stroke="#ffffff" stroke-width="1.68" stroke-linecap="square" stroke-linejoin="miter" stroke-miterlimit="2" d="M0 0L1.03945 0.807138" sodipodi:nodetypes="cc"/>
   <path id="shape12" transform="matrix(0.999999973053742 0 0 0.999999973053742 165.993464871197 120.234381437413)" fill="none" stroke="#ffffff" stroke-width="1.68" stroke-linecap="square" stroke-linejoin="miter" stroke-miterlimit="2" d="M0 0L0.615183 0.445477" sodipodi:nodetypes="cc"/>
   <path id="shape13" transform="matrix(0.999999973053742 0 0 0.999999973053742 146.81673008682 120.891990705461)" fill="none" stroke="#ffffff" stroke-width="1.68" stroke-linecap="square" stroke-linejoin="miter" stroke-miterlimit="2" d="M1.71552 0.0212132L0 0" sodipodi:nodetypes="cc"/>
   <path id="shape14" transform="matrix(0.999999973053742 0 0 0.999999973053742 146.562171660479 120.934417109852)" fill="none" stroke="#ffffff" stroke-width="1.68" stroke-linecap="square" stroke-linejoin="miter" stroke-miterlimit="2" d="M2.69408 0.296985L0 0" sodipodi:nodetypes="cc"/>
   <path id="shape15" transform="matrix(0.999999973053742 0 0 0.999999973053742 146.583384862674 119.72526458473)" fill="none" stroke="#ffffff" stroke-width="1.68" stroke-linecap="square" stroke-linejoin="miter" stroke-miterlimit="2" d="M4.68812 0L0 0.274735" sodipodi:nodetypes="cc"/>
   <path id="shape16" transform="matrix(0.999999973053742 0 0 0.999999973053742 146.710664075844 120.701071885705)" fill="none" stroke="#ffffff" stroke-width="1.68" stroke-linecap="square" stroke-linejoin="miter" stroke-miterlimit="2" d="M1.82159 0L0 0.0212132" sodipodi:nodetypes="cc"/>
   <path id="shape17" transform="matrix(0.999999973053742 0 0 0.999999973053742 146.583384862674 121.125335929607)" fill="none" stroke="#ffffff" stroke-width="1.68" stroke-linecap="square" stroke-linejoin="miter" stroke-miterlimit="2" d="M3.16077 0.275772L0 0" sodipodi:nodetypes="cc"/>
   <path id="shape18" transform="matrix(0.999999973053742 0 0 0.999999973053742 23.7322530898634 3.71026262241933)" fill="none" stroke="#ffffff" stroke-width="1.68" stroke-linecap="square" stroke-linejoin="miter" stroke-miterlimit="2" d="M0 0L0 31.9895" sodipodi:nodetypes="cc"/>
   <path id="shape19" transform="matrix(0.999999973053742 0 0 0.999999973053742 24.7347532564823 3.58298340456683)" fill="none" stroke="#ffffff" stroke-width="1.68" stroke-linecap="square" stroke-linejoin="miter" stroke-miterlimit="2" d="M0.0848528 0L0 30.017" sodipodi:nodetypes="cc"/>
   <path id="shape20" transform="matrix(0.999999973053742 0 0 0.999999973053742 22.7407121767938 4.80000276226561)" fill="none" stroke="#ffffff" stroke-width="1.68" stroke-linecap="square" stroke-linejoin="miter" stroke-miterlimit="2" d="M0.296985 0L0 30.6028" sodipodi:nodetypes="cc"/>
   <path id="shape21" transform="matrix(0.999999973053742 0 0 0.999999973053742 18.2435131460067 36.0391839569452)" fill="none" stroke="#ffffff" stroke-width="1.68" stroke-linecap="square" stroke-linejoin="miter" stroke-miterlimit="2" d="M11.6248 0.0848528L0 0" sodipodi:nodetypes="cc"/>
   <path id="shape22" transform="matrix(0.999999973053742 0 0 0.999999973053742 18.9322532192054 36.1664631747976)" fill="none" stroke="#ffffff" stroke-width="1.68" stroke-linecap="square" stroke-linejoin="miter" stroke-miterlimit="2" d="M8.6875 0.127279L0 0" sodipodi:nodetypes="cc"/>
   <path id="shape23" transform="matrix(0.999999973053742 0 0 0.999999973053742 18.9322532192054 36.6331536402567)" fill="none" stroke="#ffffff" stroke-width="1.68" stroke-linecap="square" stroke-linejoin="miter" stroke-miterlimit="2" d="M8.98448 0.0424264L0 0" sodipodi:nodetypes="cc"/>
   <path id="shape24" transform="matrix(0.999999973053742 0 0 0.999999973053742 22.6522557744359 34.5450050024854)" fill="none" stroke="#ffffff" stroke-width="1.68" stroke-linecap="square" stroke-linejoin="miter" stroke-miterlimit="2" d="M4.95 0.21L0 0" sodipodi:nodetypes="cc"/>
   <path id="shape25" transform="matrix(0.999999973053742 0 0 0.999999973053742 24.4801957173462 2.16169919809722)" fill="none" stroke="#ffffff" stroke-width="1.68" stroke-linecap="square" stroke-linejoin="miter" stroke-miterlimit="2" d="M1.03945 3.16077L0 0" sodipodi:nodetypes="cc"/>
   <path id="shape26" transform="matrix(0.999999973053742 0 0 0.999999973053742 24.2680636836907 3.11629334954748)" fill="none" stroke="#ffffff" stroke-width="1.68" stroke-linecap="square" stroke-linejoin="miter" stroke-miterlimit="2" d="M1.78191 2.71529L0 0" sodipodi:nodetypes="cc"/>
   <path id="shape27" transform="matrix(0.999999973053742 0 0 0.999999973053742 24.1619976668629 2.86173490916078)" fill="none" stroke="#ffffff" stroke-width="1.68" stroke-linecap="square" stroke-linejoin="miter" stroke-miterlimit="2" d="M3.20319 4.24264L0 0" sodipodi:nodetypes="cc"/>
   <path id="shape28" transform="matrix(0.999999973053742 0 0 0.999999973053742 23.7322530898634 3.62541023032099)" fill="none" stroke="#ffffff" stroke-width="1.68" stroke-linecap="square" stroke-linejoin="miter" stroke-miterlimit="2" d="M2.06316 1.50614L0 0" sodipodi:nodetypes="cc"/>
   <path id="shape29" transform="matrix(0.999999973053742 0 0 0.999999973053742 24.7771805644641 1.88592755434484)" fill="none" stroke="#ffffff" stroke-width="1.68" stroke-linecap="square" stroke-linejoin="miter" stroke-miterlimit="2" d="M0.700036 0.615183L0 0" sodipodi:nodetypes="cc"/>
  </g>
 </g>
</svg>
